#!OML:ASF E:\Mandelcareful walks\Project 1\Capture day 1\Session 1\Subject1.ASF
:FULLY-SPECIFIED
:DEGREES
1599
root 14.2906 15.2885 3.30968 -532.792 114.016 -542.887
lowerback 37.5686 1.77762 -2.82986
upperback 8.73425 1.80858 -1.02174
thorax -8.82571 1.19027 -0.365579
lowerneck -28.7295 7.56572 1.65357
upperneck 18.1348 14.5282 -16.7857
head 12.3449 4.58637 -3.75391
rclavicle 2.90226e-014 -2.38542e-014
rhumerus -14.6594 5.62763 -77.6121
rradius 52.7031
rwrist -22.9866
rhand -20.6742 -24.0328
rfingers 7.12502
rthumb 5.68889 -53.9365
lclavicle 2.90226e-014 -2.38542e-014
lhumerus -11.9463 -21.8924 81.1668
lradius 56.009
lwrist 25.0102
lhand -29.4615 -15.0903
lfingers 7.12502
lthumb -2.79738 14.8711
rfemur -53.0567 -4.60862 14.0915
rtibia 51.0588
rfoot -6.03053 6.4138
rtoes -3.82532
lfemur -37.9732 3.34335 -17.4038
ltibia 66.4092
lfoot -32.2389 -2.7397
ltoes 1.75136
1600
root 14.3453 15.2746 3.46332 -532.842 112.892 -542.982
lowerback 37.7346 1.36635 -2.57642
upperback 8.70561 1.39646 -1.08094
thorax -8.90621 1.0053 -0.403765
lowerneck -28.569 7.92385 2.09869
upperneck 17.8801 14.9312 -17.2368
head 12.3482 4.7693 -3.90533
rclavicle 8.34896e-015 -1.33186e-014
rhumerus -14.1882 6.18084 -77.9877
rradius 52.263
rwrist -22.8601
rhand -20.3801 -24.1072
rfingers 7.12502
rthumb 5.97282 -54.003
lclavicle 8.34896e-015 -1.33186e-014
lhumerus -12.2017 -21.0032 80.838
lradius 55.8828
lwrist 24.6678
lhand -29.4649 -14.8885
lfingers 7.12502
lthumb -2.80071 15.0728
rfemur -52.8309 -4.79961 14.2872
rtibia 51.922
rfoot -7.16243 6.20866
rtoes -1.82063
lfemur -37.8216 2.68473 -16.7898
ltibia 66.6217
lfoot -32.1622 -2.878
ltoes 0.309248
1601
root 14.3987 15.2664 3.62357 -532.451 112.01 -542.622
lowerback 37.7706 1.14189 -2.66977
upperback 8.76893 1.09426 -1.16385
thorax -8.84298 0.874906 -0.324653
lowerneck -28.7346 8.12058 2.30655
upperneck 17.8273 15.1051 -17.2218
head 12.3908 4.85495 -3.89193
rclavicle -2.0276e-014 5.64548e-014
rhumerus -13.7284 6.70067 -78.2896
rradius 51.9238
rwrist -22.8023
rhand -20.418 -23.9077
rfingers 7.12502
rthumb 5.93623 -53.8045
lclavicle -2.0276e-014 5.64548e-014
lhumerus -12.1714 -20.1792 80.3764
lradius 55.6347
lwrist 24.481
lhand -29.4574 -14.8295
lfingers 7.12502
lthumb -2.79348 15.132
rfemur -52.7104 -4.84211 14.331
rtibia 52.8465
rfoot -8.11821 6.0225
rtoes 0.33322
lfemur -37.65 2.22594 -16.3334
ltibia 66.8031
lfoot -32.1102 -3.18125
ltoes -0.426466
1602
root 14.4481 15.2601 3.78476 -531.804 111.052 -541.874
lowerback 38.0091 0.91518 -2.75086
upperback 8.83564 0.787818 -1.30485
thorax -8.84352 0.746983 -0.316116
lowerneck -29.0676 8.35656 2.79059
upperneck 17.9424 15.3451 -17.4774
head 12.5951 4.93543 -4.01323
rclavicle -2.3059e-014 -1.82882e-014
rhumerus -13.7175 7.15121 -78.5436
rradius 52.074
rwrist -22.841
rhand -20.4823 -23.6422
rfingers 7.12502
rthumb 5.87421 -53.5407
lclavicle -2.3059e-014 -1.82882e-014
lhumerus -12.0686 -19.4522 79.8741
lradius 55.4593
lwrist 24.4215
lhand -29.4013 -14.7177
lfingers 7.12502
lthumb -2.7393 15.2444
rfemur -52.5415 -5.03441 14.3064
rtibia 53.8101
rfoot -9.04235 5.77653
rtoes 1.49024
lfemur -37.4146 1.55656 -15.9501
ltibia 67.0125
lfoot -32.0035 -3.65472
ltoes -0.911342
1603
root 14.4928 15.253 3.95035 -531.702 110.217 -541.694
lowerback 38.3308 0.764248 -2.80061
upperback 8.85498 0.586557 -1.36475
thorax -8.92697 0.664889 -0.280224
lowerneck -29.3393 8.58144 3.36881
upperneck 18.0479 15.5545 -17.826
head 12.8038 5.00205 -4.19359
rclavicle 1.51076e-014 -3.65764e-014
rhumerus -13.2792 7.64276 -78.8305
rradius 51.6269
rwrist -22.8468
rhand -20.5448 -23.1188
rfingers 7.12502
rthumb 5.81385 -53.0191
lclavicle 1.51076e-014 -3.65764e-014
lhumerus -12.1159 -18.541 79.5169
lradius 55.3335
lwrist 24.1812
lhand -29.2992 -14.2667
lfingers 7.12502
lthumb -2.64063 15.6967
rfemur -52.3971 -5.00745 14.5701
rtibia 54.7291
rfoot -9.91588 5.24607
rtoes 2.19606
lfemur -37.1522 0.98452 -15.2638
ltibia 67.2854
lfoot -31.8252 -4.19056
ltoes -1.74691
1604
root 14.5355 15.242 4.1216 -531.973 109.811 -542.047
lowerback 38.4241 0.853724 -3.24679
upperback 8.85211 0.547378 -1.22405
thorax -8.95806 0.650718 0.115986
lowerneck -29.5832 8.77954 3.54525
upperneck 18.1618 15.8067 -17.8936
head 12.9498 5.09293 -4.19123
rclavicle 7.15625e-015 1.94809e-014
rhumerus -12.7906 8.74946 -78.8978
rradius 51.2379
rwrist -23.0448
rhand -20.8276 -22.7416
rfingers 7.12502
rthumb 5.54084 -52.6491
lclavicle 7.15625e-015 1.94809e-014
lhumerus -12.3292 -17.2733 79.3656
lradius 55.1531
lwrist 24.0228
lhand -29.3109 -13.8977
lfingers 7.12502
lthumb -2.65194 16.0656
rfemur -52.411 -4.46484 15.038
rtibia 55.5376
rfoot -10.7314 4.49871
rtoes 2.62281
lfemur -37.0371 0.852619 -14.3423
ltibia 67.6336
lfoot -31.5672 -4.81301
ltoes -2.92286
1605
root 14.5822 15.2365 4.28478 -531.056 108.98 -541.518
lowerback 38.002 0.780869 -2.98985
upperback 8.88737 0.563066 -1.34551
thorax -8.77802 0.658096 -0.147052
lowerneck -30.0588 8.55106 3.18485
upperneck 18.5517 15.5762 -17.417
head 13.0735 4.97005 -4.00612
rclavicle 3.26007e-014 -2.46493e-014
rhumerus -12.7155 8.64944 -78.842
rradius 51.2957
rwrist -23.031
rhand -20.5974 -23.1418
rfingers 7.12502
rthumb 5.76309 -53.0435
lclavicle 3.26007e-014 -2.46493e-014
lhumerus -12.1877 -17.3824 79.2007
lradius 54.8325
lwrist 24.3172
lhand -29.607 -14.1511
lfingers 7.12502
lthumb -2.93797 15.8084
rfemur -52.6492 -4.40442 15.2088
rtibia 56.2214
rfoot -11.5853 3.76083
rtoes 3.31394
lfemur -37.5185 0.157255 -13.7231
ltibia 67.9836
lfoot -31.0537 -5.3305
ltoes -4.02525
